<mxfile host="app.diagrams.net" modified="2023-05-20T18:55:57.807Z" agent="Mozilla/5.0 (Windows NT 10.0; Win64; x64; rv:109.0) Gecko/20100101 Firefox/113.0" etag="H8OZekvKsCM3Ma943n6x" version="21.3.2" type="device">
  <diagram name="Page-1" id="jFEMx681TeEaOXfy0D0k">
    <mxGraphModel dx="1434" dy="754" grid="1" gridSize="10" guides="1" tooltips="1" connect="1" arrows="1" fold="1" page="1" pageScale="1" pageWidth="850" pageHeight="1100" math="0" shadow="0">
      <root>
        <mxCell id="0" />
        <mxCell id="1" parent="0" />
        <mxCell id="-RHoygchYiFBm0QI4CZZ-1" value="" style="rounded=0;whiteSpace=wrap;html=1;" parent="1" vertex="1">
          <mxGeometry x="313" y="50" width="30" height="30" as="geometry" />
        </mxCell>
        <mxCell id="-RHoygchYiFBm0QI4CZZ-2" value="" style="rounded=0;whiteSpace=wrap;html=1;" parent="1" vertex="1">
          <mxGeometry x="343" y="50" width="30" height="30" as="geometry" />
        </mxCell>
        <mxCell id="-RHoygchYiFBm0QI4CZZ-3" value="" style="endArrow=classic;html=1;rounded=0;" parent="1" source="-RHoygchYiFBm0QI4CZZ-7" edge="1">
          <mxGeometry width="50" height="50" relative="1" as="geometry">
            <mxPoint x="593" y="230" as="sourcePoint" />
            <mxPoint x="328" y="120" as="targetPoint" />
          </mxGeometry>
        </mxCell>
        <mxCell id="-RHoygchYiFBm0QI4CZZ-7" value="" style="shape=waypoint;sketch=0;fillStyle=solid;size=6;pointerEvents=1;points=[];fillColor=none;resizable=0;rotatable=0;perimeter=centerPerimeter;snapToPoint=1;" parent="1" vertex="1">
          <mxGeometry x="318" y="55" width="20" height="20" as="geometry" />
        </mxCell>
        <mxCell id="-RHoygchYiFBm0QI4CZZ-8" value="" style="shape=waypoint;sketch=0;fillStyle=solid;size=6;pointerEvents=1;points=[];fillColor=none;resizable=0;rotatable=0;perimeter=centerPerimeter;snapToPoint=1;" parent="1" vertex="1">
          <mxGeometry x="348" y="55" width="20" height="20" as="geometry" />
        </mxCell>
        <mxCell id="-RHoygchYiFBm0QI4CZZ-9" value="*table*" style="rounded=0;whiteSpace=wrap;html=1;" parent="1" vertex="1">
          <mxGeometry x="313" y="120" width="40" height="30" as="geometry" />
        </mxCell>
        <mxCell id="-RHoygchYiFBm0QI4CZZ-23" value="" style="rounded=0;whiteSpace=wrap;html=1;" parent="1" vertex="1">
          <mxGeometry x="413" y="110" width="30" height="30" as="geometry" />
        </mxCell>
        <mxCell id="-RHoygchYiFBm0QI4CZZ-24" value="" style="rounded=0;whiteSpace=wrap;html=1;" parent="1" vertex="1">
          <mxGeometry x="443" y="110" width="30" height="30" as="geometry" />
        </mxCell>
        <mxCell id="-RHoygchYiFBm0QI4CZZ-26" value="" style="endArrow=classic;html=1;rounded=0;entryX=0.5;entryY=0;entryDx=0;entryDy=0;" parent="1" source="-RHoygchYiFBm0QI4CZZ-28" target="-RHoygchYiFBm0QI4CZZ-30" edge="1">
          <mxGeometry width="50" height="50" relative="1" as="geometry">
            <mxPoint x="438" y="150" as="sourcePoint" />
            <mxPoint x="458" y="180" as="targetPoint" />
          </mxGeometry>
        </mxCell>
        <mxCell id="-RHoygchYiFBm0QI4CZZ-27" value="" style="shape=waypoint;sketch=0;fillStyle=solid;size=6;pointerEvents=1;points=[];fillColor=none;resizable=0;rotatable=0;perimeter=centerPerimeter;snapToPoint=1;" parent="1" vertex="1">
          <mxGeometry x="418" y="115" width="20" height="20" as="geometry" />
        </mxCell>
        <mxCell id="-RHoygchYiFBm0QI4CZZ-28" value="" style="shape=waypoint;sketch=0;fillStyle=solid;size=6;pointerEvents=1;points=[];fillColor=none;resizable=0;rotatable=0;perimeter=centerPerimeter;snapToPoint=1;" parent="1" vertex="1">
          <mxGeometry x="448" y="115" width="20" height="20" as="geometry" />
        </mxCell>
        <mxCell id="-RHoygchYiFBm0QI4CZZ-30" value="cat code" style="rounded=0;whiteSpace=wrap;html=1;" parent="1" vertex="1">
          <mxGeometry x="448" y="170" width="30" height="30" as="geometry" />
        </mxCell>
        <mxCell id="-RHoygchYiFBm0QI4CZZ-32" style="edgeStyle=orthogonalEdgeStyle;rounded=0;orthogonalLoop=1;jettySize=auto;html=1;exitX=1;exitY=0.5;exitDx=0;exitDy=0;entryX=0;entryY=0.5;entryDx=0;entryDy=0;" parent="1" edge="1">
          <mxGeometry relative="1" as="geometry">
            <mxPoint x="273" y="63" as="sourcePoint" />
            <mxPoint x="313" y="63" as="targetPoint" />
          </mxGeometry>
        </mxCell>
        <mxCell id="j2mQybEEx7JjzLiYnR7x-3" style="edgeStyle=orthogonalEdgeStyle;rounded=0;orthogonalLoop=1;jettySize=auto;html=1;entryX=0;entryY=0.5;entryDx=0;entryDy=0;" edge="1" parent="1" target="j2mQybEEx7JjzLiYnR7x-5" source="-RHoygchYiFBm0QI4CZZ-8">
          <mxGeometry relative="1" as="geometry">
            <mxPoint x="373" y="65" as="sourcePoint" />
          </mxGeometry>
        </mxCell>
        <mxCell id="j2mQybEEx7JjzLiYnR7x-4" value="" style="group" vertex="1" connectable="0" parent="1">
          <mxGeometry x="413" y="50" width="60" height="30" as="geometry" />
        </mxCell>
        <mxCell id="j2mQybEEx7JjzLiYnR7x-5" value="" style="rounded=0;whiteSpace=wrap;html=1;" vertex="1" parent="j2mQybEEx7JjzLiYnR7x-4">
          <mxGeometry width="30" height="30" as="geometry" />
        </mxCell>
        <mxCell id="j2mQybEEx7JjzLiYnR7x-6" value="" style="rounded=0;whiteSpace=wrap;html=1;" vertex="1" parent="j2mQybEEx7JjzLiYnR7x-4">
          <mxGeometry x="30" width="30" height="30" as="geometry" />
        </mxCell>
        <mxCell id="j2mQybEEx7JjzLiYnR7x-7" value="" style="shape=waypoint;sketch=0;fillStyle=solid;size=6;pointerEvents=1;points=[];fillColor=none;resizable=0;rotatable=0;perimeter=centerPerimeter;snapToPoint=1;" vertex="1" parent="j2mQybEEx7JjzLiYnR7x-4">
          <mxGeometry x="5" y="5" width="20" height="20" as="geometry" />
        </mxCell>
        <mxCell id="j2mQybEEx7JjzLiYnR7x-8" value="" style="shape=waypoint;sketch=0;fillStyle=solid;size=6;pointerEvents=1;points=[];fillColor=none;resizable=0;rotatable=0;perimeter=centerPerimeter;snapToPoint=1;" vertex="1" parent="j2mQybEEx7JjzLiYnR7x-4">
          <mxGeometry x="35" y="5" width="20" height="20" as="geometry" />
        </mxCell>
        <mxCell id="j2mQybEEx7JjzLiYnR7x-19" value="" style="group" vertex="1" connectable="0" parent="1">
          <mxGeometry x="513" y="50" width="60" height="30" as="geometry" />
        </mxCell>
        <mxCell id="j2mQybEEx7JjzLiYnR7x-20" value="" style="rounded=0;whiteSpace=wrap;html=1;" vertex="1" parent="j2mQybEEx7JjzLiYnR7x-19">
          <mxGeometry width="30" height="30" as="geometry" />
        </mxCell>
        <mxCell id="j2mQybEEx7JjzLiYnR7x-21" value="" style="rounded=0;whiteSpace=wrap;html=1;" vertex="1" parent="j2mQybEEx7JjzLiYnR7x-19">
          <mxGeometry x="30" width="30" height="30" as="geometry" />
        </mxCell>
        <mxCell id="j2mQybEEx7JjzLiYnR7x-22" value="" style="shape=waypoint;sketch=0;fillStyle=solid;size=6;pointerEvents=1;points=[];fillColor=none;resizable=0;rotatable=0;perimeter=centerPerimeter;snapToPoint=1;" vertex="1" parent="j2mQybEEx7JjzLiYnR7x-19">
          <mxGeometry x="5" y="5" width="20" height="20" as="geometry" />
        </mxCell>
        <mxCell id="j2mQybEEx7JjzLiYnR7x-30" style="edgeStyle=orthogonalEdgeStyle;rounded=0;orthogonalLoop=1;jettySize=auto;html=1;exitX=0.5;exitY=1;exitDx=0;exitDy=0;entryX=0.5;entryY=0;entryDx=0;entryDy=0;" edge="1" parent="1" source="j2mQybEEx7JjzLiYnR7x-20">
          <mxGeometry relative="1" as="geometry">
            <mxPoint x="528" y="110" as="targetPoint" />
          </mxGeometry>
        </mxCell>
        <mxCell id="j2mQybEEx7JjzLiYnR7x-31" value="" style="endArrow=none;html=1;rounded=0;exitX=0;exitY=1;exitDx=0;exitDy=0;" edge="1" parent="1" source="j2mQybEEx7JjzLiYnR7x-21">
          <mxGeometry width="50" height="50" relative="1" as="geometry">
            <mxPoint x="573" y="180" as="sourcePoint" />
            <mxPoint x="573" y="50" as="targetPoint" />
          </mxGeometry>
        </mxCell>
        <mxCell id="j2mQybEEx7JjzLiYnR7x-33" value="" style="endArrow=classic;html=1;rounded=0;entryX=0.5;entryY=0;entryDx=0;entryDy=0;" edge="1" parent="1">
          <mxGeometry width="50" height="50" relative="1" as="geometry">
            <mxPoint x="428" y="65" as="sourcePoint" />
            <mxPoint x="428" y="110" as="targetPoint" />
          </mxGeometry>
        </mxCell>
        <mxCell id="j2mQybEEx7JjzLiYnR7x-39" value="" style="endArrow=classic;html=1;rounded=0;entryX=0;entryY=0.5;entryDx=0;entryDy=0;" edge="1" parent="1" source="j2mQybEEx7JjzLiYnR7x-8">
          <mxGeometry width="50" height="50" relative="1" as="geometry">
            <mxPoint x="448" y="90" as="sourcePoint" />
            <mxPoint x="513" y="65" as="targetPoint" />
          </mxGeometry>
        </mxCell>
        <mxCell id="j2mQybEEx7JjzLiYnR7x-41" value="&#39;cat" style="rounded=0;whiteSpace=wrap;html=1;" vertex="1" parent="1">
          <mxGeometry x="413" y="170" width="30" height="30" as="geometry" />
        </mxCell>
        <mxCell id="j2mQybEEx7JjzLiYnR7x-43" style="edgeStyle=orthogonalEdgeStyle;rounded=0;orthogonalLoop=1;jettySize=auto;html=1;entryX=0.5;entryY=0;entryDx=0;entryDy=0;" edge="1" parent="1" source="-RHoygchYiFBm0QI4CZZ-27" target="j2mQybEEx7JjzLiYnR7x-41">
          <mxGeometry relative="1" as="geometry" />
        </mxCell>
        <mxCell id="j2mQybEEx7JjzLiYnR7x-48" value="" style="rounded=0;whiteSpace=wrap;html=1;" vertex="1" parent="1">
          <mxGeometry x="513" y="110" width="30" height="30" as="geometry" />
        </mxCell>
        <mxCell id="j2mQybEEx7JjzLiYnR7x-49" value="" style="rounded=0;whiteSpace=wrap;html=1;" vertex="1" parent="1">
          <mxGeometry x="543" y="110" width="30" height="30" as="geometry" />
        </mxCell>
        <mxCell id="j2mQybEEx7JjzLiYnR7x-50" value="" style="endArrow=classic;html=1;rounded=0;entryX=0.5;entryY=0;entryDx=0;entryDy=0;" edge="1" parent="1" source="j2mQybEEx7JjzLiYnR7x-52" target="j2mQybEEx7JjzLiYnR7x-53">
          <mxGeometry width="50" height="50" relative="1" as="geometry">
            <mxPoint x="538" y="150" as="sourcePoint" />
            <mxPoint x="558" y="180" as="targetPoint" />
          </mxGeometry>
        </mxCell>
        <mxCell id="j2mQybEEx7JjzLiYnR7x-51" value="" style="shape=waypoint;sketch=0;fillStyle=solid;size=6;pointerEvents=1;points=[];fillColor=none;resizable=0;rotatable=0;perimeter=centerPerimeter;snapToPoint=1;" vertex="1" parent="1">
          <mxGeometry x="518" y="115" width="20" height="20" as="geometry" />
        </mxCell>
        <mxCell id="j2mQybEEx7JjzLiYnR7x-52" value="" style="shape=waypoint;sketch=0;fillStyle=solid;size=6;pointerEvents=1;points=[];fillColor=none;resizable=0;rotatable=0;perimeter=centerPerimeter;snapToPoint=1;" vertex="1" parent="1">
          <mxGeometry x="548" y="115" width="20" height="20" as="geometry" />
        </mxCell>
        <mxCell id="j2mQybEEx7JjzLiYnR7x-53" value="dog code" style="rounded=0;whiteSpace=wrap;html=1;" vertex="1" parent="1">
          <mxGeometry x="548" y="170" width="30" height="30" as="geometry" />
        </mxCell>
        <mxCell id="j2mQybEEx7JjzLiYnR7x-54" value="&#39;dog" style="rounded=0;whiteSpace=wrap;html=1;" vertex="1" parent="1">
          <mxGeometry x="513" y="170" width="30" height="30" as="geometry" />
        </mxCell>
        <mxCell id="j2mQybEEx7JjzLiYnR7x-55" style="edgeStyle=orthogonalEdgeStyle;rounded=0;orthogonalLoop=1;jettySize=auto;html=1;entryX=0.5;entryY=0;entryDx=0;entryDy=0;" edge="1" parent="1" source="j2mQybEEx7JjzLiYnR7x-51" target="j2mQybEEx7JjzLiYnR7x-54">
          <mxGeometry relative="1" as="geometry" />
        </mxCell>
      </root>
    </mxGraphModel>
  </diagram>
</mxfile>
